<?xml version="1.0" encoding="UTF-8"?>
<!DOCTYPE svg PUBLIC "-//W3C//DTD SVG 1.1//EN" "http://www.w3.org/Graphics/SVG/1.1/DTD/svg11.dtd">
<!-- Creator: CorelDRAW -->
<svg xmlns="http://www.w3.org/2000/svg" xml:space="preserve" width="285.65mm" height="40.7384mm" version="1.1" style="shape-rendering:geometricPrecision; text-rendering:geometricPrecision; image-rendering:optimizeQuality; fill-rule:evenodd; clip-rule:evenodd"
viewBox="0 0 34216.62 4879.86"
 xmlns:xlink="http://www.w3.org/1999/xlink"
 xmlns:xodm="http://www.corel.com/coreldraw/odm/2003">
 <defs>
  <style type="text/css">
   <![CDATA[
    .str0 {stroke:#00FAC8;stroke-width:59.89;stroke-miterlimit:22.9256}
    .fil1 {fill:none}
    .fil5 {fill:#FEFEFE}
    .fil2 {fill:#001629}
    .fil4 {fill:#00FAC8}
    .fil3 {fill:#FEFEFE;fill-rule:nonzero}
    .fil0 {fill:#16B890;fill-opacity:0.200000}
   ]]>
  </style>
 </defs>
 <g id="Camada_x0020_1">
  <metadata id="CorelCorpID_0Corel-Layer"/>
  <path class="fil0" d="M18627.39 4568.8l-8126.94 -150.37 0 130.28 -326.25 0 0 -136.32 -2887.72 -53.42c-47.24,45.97 -96.01,89.35 -146.31,129.56 -74.04,59.2 -160.19,118.83 -249.68,171.17 -82.32,48.15 -167.76,90.39 -249.66,120.84l-267.12 99.31 -307.07 -543.45 -4019.4 -74.36 0 130.27 -326.25 0 0 -326.25 133.18 0 0 -160.74 16777.38 310.41 0 -3792.98 322.08 0 0 326.25 -133.18 0 0 615.96c464.12,227.17 928.22,454.43 1392.23,681.82l0 714.63c-464.11,227.1 -928.17,454.27 -1392.23,681.48l0 935.97 133.18 0 0 326.25 -326.25 0 0 -136.3zm-16902.22 -1040.71c-522.05,-255.61 -1044.11,-511.21 -1566.22,-766.69l0 -714.63c522,-255.8 1044.1,-511.41 1566.22,-766.97l0 2248.29zm1541.23 -2984.19l32.23 -146.15 1290.1 0 -26.92 122.19 -1295.42 23.96zm10944.15 -202.47c46.34,-9.95 94.31,-15.19 143.25,-15.19l20.29 0.38c34.46,0.95 68.07,4.3 100.68,9.91l-264.22 4.9z"/>
  <polygon class="fil1 str0" points="1725.17,3902.94 18631.56,4215.74 18631.56,259.63 1725.17,572.43 "/>
  <path class="fil2 str0" d="M16286.02 1018.79c190.45,-109.28 411.29,-172.75 657.78,-172.75 207.11,0 398.35,54.02 553.18,153.03l0 -497.09 2526.81 1237.09 0 677.55 -2526.81 1237.06 0 -251.53 -100.3 36.43c-260.45,94.61 -509.88,131.86 -787.35,131.86 -328.07,0 -597.63,-92.51 -788.8,-264.65l-53.57 239.41 -2665.25 0c-128.19,25.35 -265.83,33.65 -395.26,33.65 -322.08,0 -598.51,-120.8 -741.99,-355.39 -3.07,20.58 -6.11,41.17 -9.14,61.79l-38.25 259.96 -1112.85 0 0.29 -4.08c-88.8,24.7 -182.25,37.73 -279.59,37.73 -351.03,0 -600.58,-182.3 -703.15,-466.24 -239.92,280.02 -572.47,466.24 -983.98,466.24 -504.91,0 -864.11,-252.09 -985.9,-674.91l-16.4 34.25c-209.65,424.52 -499.04,901.89 -872.89,1200.82 -139.55,111.58 -323.19,224.88 -491.14,287.33l-243.28 90.45 -536.21 -949.29 51.4 -22.3 -549.37 0 0.65 -14.57c-89.42,30.98 -184.29,48.21 -283.65,48.21 -184.51,0 -338.39,-49.05 -461.07,-133.64l-22.2 100 -1870.99 0 0 108.48 -2526.81 -1237.06 0 -677.55 2526.81 -1237.09 0 1181.31 -852.92 397.38 852.92 394.94 0 300.64 17.07 -0.4 589.8 -2674.39 1228.9 0 -523.5 2376.73 231.81 0c30.86,-350.71 151.98,-705.2 356.77,-987.19 315.93,-435 783.07,-644.97 1316.2,-644.97 137.27,0 293.03,9.57 442.33,33.65l1244.05 0 2.14 145.24 54.79 -145.24 1304.15 0 -25.39 53.02c144.27,-55.75 302.46,-86.66 473.32,-86.66 366.89,0 638.38,132.29 803.82,360.79l70.59 -327.15 2111.79 0 86.46 -378.93 1280.39 -264.97 -140.51 643.89 104.33 0c-24.51,-68.49 -36.76,-144.62 -34.74,-226.44 2.7,-349.95 297.09,-623.29 643.51,-623.29 340.81,0 599.53,243.36 590.12,586.01 -2.64,96.02 -24.57,184.91 -62.04,263.72l1589.51 0 -26.42 139.11zm1583.29 837.96c-27.13,212.09 -116.18,396.73 -261.93,543.09 -71.48,71.73 -50.71,48.13 29.46,11.01l713.07 -330.19 -480.59 -223.91zm-11469.01 725.08c-38.88,208.94 -64.62,466.73 -60.58,652.51l0.06 2.8c47.23,-38.02 97.37,-83.25 129.45,-124.92l-68.94 -530.39z"/>
  <path class="fil3" d="M2782.8 3240.96l1400.83 0 101.79 -458.53 -794.94 0 523.5 -2376.73 -605.9 0 -625.28 2835.26zm3252.75 0c-4.85,-222.94 38.79,-622.57 96.94,-862.36l261.75 -1144.19c-145.42,-50.49 -382.94,-84.14 -620.44,-84.14 -1017.92,0 -1376.61,883.39 -1376.61,1505.96 0,361.78 169.65,618.37 513.81,618.37 189.03,0 416.85,-105.16 605.9,-378.59l14.54 0c-4.84,122 -14.54,235.57 -19.39,344.95l523.5 0zm-460.49 -1009.59c-87.24,374.39 -242.36,609.96 -407.16,609.96 -150.26,0 -179.34,-130.41 -179.34,-311.29 4.85,-302.88 218.13,-988.55 615.59,-988.55 33.95,0 77.56,4.2 126.04,12.61l-155.12 677.27zm950.34 -1047.45l252.06 1939.25c4.85,42.07 -4.85,63.1 -14.54,92.55 -58.17,113.58 -189.05,231.37 -324.76,328.12 -96.95,67.31 -208.44,121.99 -315.08,168.26l242.36 429.07c101.81,-37.85 266.61,-126.19 407.17,-239.77 290.83,-231.37 557.43,-626.79 790.1,-1097.93l775.54 -1619.55 -610.74 0 -358.7 950.7c-82.41,218.74 -130.87,357.56 -179.34,525.82l-9.7 0c4.85,-151.43 0,-294.46 -4.85,-487.96l-14.53 -988.56 -634.99 0zm2743.8 -33.65c-717.37,0 -1158.48,719.33 -1158.48,1413.42 0,302.88 130.88,710.91 727.08,710.91 722.23,0 1119.71,-757.19 1119.71,-1405 0,-286.06 -87.25,-719.33 -688.31,-719.33zm-96.93 399.63c145.41,0 189.03,117.78 189.03,256.6 0,370.18 -164.81,1068.47 -455.64,1068.47 -189.03,0 -193.88,-185.08 -193.88,-336.52 -4.85,-353.35 198.74,-988.55 460.49,-988.55zm2297.87 -365.98l-252.05 1190.47c-67.87,294.47 -222.98,471.14 -378.08,471.14 -101.79,0 -145.43,-63.1 -145.43,-164.06 0,-96.75 19.39,-201.91 43.64,-328.12l256.89 -1169.44 -605.9 0 -256.9 1190.47c-33.94,155.65 -58.17,294.47 -58.17,424.87 0,269.23 135.72,475.34 450.8,475.34 222.97,0 441.09,-96.75 615.59,-315.49l9.69 8.41 -19.39 273.43 523.51 0c29.08,-197.71 63.01,-429.07 121.17,-673.06l300.53 -1383.98 -605.9 0zm1124.84 -424.87l-96.94 424.87 -276.3 0 -82.4 370.18 276.28 0 -208.41 959.11c-24.23,100.96 -43.63,214.54 -43.63,307.08 0,277.64 179.34,454.31 542.88,454.31 116.34,0 252.05,-8.41 363.54,-33.65l72.71 -395.42c-58.16,8.42 -121.17,8.42 -164.8,8.42 -111.48,0 -184.19,-46.27 -184.19,-172.48 0,-37.85 4.84,-100.96 19.39,-172.47l208.43 -954.9 450.79 0 77.55 -370.18 -445.94 0 121.17 -555.26 -630.13 130.4zm1299.35 2481.9l455.64 -2057.04 -605.9 0 -455.64 2057.04 605.9 0zm237.51 -2305.22c179.35,0 344.16,-117.78 349.01,-328.12 4.84,-143.02 -87.25,-273.43 -286,-273.43 -213.28,0 -339.29,172.48 -339.29,323.91 -4.85,155.65 82.4,277.64 276.28,277.64zm-28.8 2305.22l1420.23 0 96.94 -433.28 -780.4 0 0 -8.42c87.25,-88.34 155.12,-155.64 358.7,-399.63l673.76 -832.9 72.71 -382.81 -1328.13 0 -96.94 433.29 698 0 -4.85 8.41c-145.41,143.02 -184.19,189.3 -348.99,391.22l-698 870.77 -63.02 353.35zm3150.98 -487.97c-140.57,58.9 -281.14,100.97 -479.88,100.97 -164.8,0 -271.43,-63.1 -329.6,-147.24 -53.32,-75.72 -58.17,-180.88 -53.32,-239.77 659.23,16.83 1182.71,-193.5 1182.71,-757.19 -4.84,-281.84 -198.72,-559.48 -630.13,-559.48 -756.16,0 -1139.09,744.57 -1139.09,1341.91 0,441.7 222.97,774.02 804.62,774.02 271.45,0 475.03,-37.86 683.47,-113.58l-38.79 -399.63zm-218.13 -992.76c0,214.54 -266.59,323.91 -586.52,311.29 67.87,-294.46 232.67,-500.58 416.88,-500.58 116.32,0 169.64,71.51 169.64,189.3z"/>
  <polygon class="fil4" points="1562.05,3739.82 1888.3,3739.82 1888.3,4066.06 1562.05,4066.06 "/>
  <polygon class="fil4" points="10015.25,3896.22 10341.5,3896.22 10341.5,4222.47 10015.25,4222.47 "/>
  <polygon class="fil4" points="18468.44,4052.61 18794.68,4052.61 18794.68,4378.86 18468.44,4378.86 "/>
  <polygon class="fil4" points="18468.44,96.51 18794.68,96.51 18794.68,422.76 18468.44,422.76 "/>
  <polygon class="fil4" points="10015.25,252.91 10341.5,252.91 10341.5,579.16 10015.25,579.16 "/>
  <polygon class="fil4" points="1562.05,409.31 1888.3,409.31 1888.3,735.55 1562.05,735.55 "/>
  <polygon class="fil5" points="981.62,2081.5 2252.51,2670 2252.51,3165.99 334.19,2226.82 334.19,1928.87 2252.51,989.68 2252.51,1489.39 "/>
  <polygon class="fil5" points="19072.12,2081.5 17801.22,2670 17801.22,3165.99 19719.55,2226.82 19719.55,1928.87 17801.22,989.68 17801.22,1489.39 "/>
  <path class="fil1" d="M32373.82 1266.66c74.08,-133.2 161.45,-253.36 262.61,-352.24 197.53,-193.08 442.38,-299.61 720.36,-299.61 625.28,0 859.83,493.11 859.83,1038.67 0,544.03 -173.95,1274.35 -566.48,1666.9 -200.5,200.5 -441.15,308.94 -726.16,308.94 -222.35,0 -397.57,-67.5 -530.72,-179.21l1.34 150.61 -985.17 0 6.5 -509.85 -191.6 509.85 -602.21 0c8.89,38.51 13.54,78.78 13.54,120.25 0,380.2 -324.08,605.86 -677.41,605.86 -131.94,0 -270.19,-36.73 -380.5,-110.29l-177.68 -118.47 89.54 -249.75 -77.05 -7.01 179.19 -277.93 37.9 -105.73c-31.48,-22.09 -61.01,-46.14 -88.65,-71.94l-4.52 100.32 -157.59 67.55c-132.97,56.98 -293.45,68.59 -436.71,68.59 -351.23,0 -605.71,-141.85 -766.33,-365.99l-68.29 344.54 -1606.46 0 191.7 -1001.55 -308.36 0 -193.17 1001.55 -1644.72 0 -85.62 -397.96 -75.58 397.96 -939.39 0 51.71 -270.14c-198.44,193.98 -435.72,298.74 -715.86,298.74 -224.44,0 -400.86,-68.77 -534.47,-182.39l-1.76 39.1 -157.59 67.55c-132.97,56.98 -293.44,68.59 -436.71,68.59 -655.78,0 -974.29,-494.47 -974.29,-1095.9 0,-543.86 148.81,-1121.89 540.06,-1518.83 242.55,-246.1 563.79,-385.47 909.96,-385.47 130.66,0 332.81,24.78 439.4,104.75l81.78 61.37c165.9,-112.65 356.74,-173.27 566.44,-173.27 362.58,0 593.79,165.81 724.05,411.51l73.28 -382.91 858.96 0 64.73 333.67 62.92 -333.67 3636.38 0 -60.12 300.61c233.29,-206.5 527.85,-322.07 843.08,-322.07 130.66,0 332.81,24.78 439.4,104.75l128.76 96.63c202.23,-130.29 436.75,-201.38 683.99,-201.38 130.66,0 332.81,24.78 439.41,104.75l4.07 3.05c50.61,-311.83 231.32,-615.73 583.33,-615.73 78.14,0 144.8,13.12 208.8,38.31l15.27 -52.61 754.43 0 -54.62 319.28c-33.59,196.34 -112.83,380.57 -250.06,495.72l3.13 351.93zm-1148.94 -212.74l-27.32 0 -104.51 325.47 131.84 -325.47zm-262.39 647.79l-255.62 -118.06c-20.44,-7.08 -71.56,-7.49 -94.02,-7.49 -51.1,0 -117.09,58.49 -146.37,95.78 -159.42,203.11 -224.27,501.04 -224.27,754.17 0,46.67 6.46,200.86 39,244.72 4.44,0.62 9.94,0.72 13.28,0.72 37.22,0 109.34,-5.38 142.81,-18.77l168 -69.19 357.19 -881.88zm-1569.62 -125.12c-12.57,-0.38 -24.17,-0.43 -32.17,-0.43 -51.09,0 -117.08,58.49 -146.37,95.78 -159.41,203.11 -224.27,501.04 -224.27,754.17 0,46.67 6.47,200.86 39,244.72 4.44,0.62 9.95,0.72 13.28,0.72 37.22,0 109.34,-5.38 142.81,-18.77l38.62 -15.91c-2.49,-36.59 -3.73,-73.51 -3.73,-110.61 0,-319.3 51.29,-650.37 172.83,-949.67zm-1254.85 6.72l-246.83 0 -5.34 25.89 241.95 0c3.35,-8.66 6.74,-17.29 10.22,-25.89zm-170.11 951.47l-257.31 0 -24.23 122.47 286.72 0c-3.25,-40.21 -4.96,-81.09 -5.17,-122.47zm-1080.68 -951.47l-310.22 0 -18.36 93.85 310.62 0 17.97 -93.85zm-4974.29 1061.76c-1.13,-25.21 -1.69,-50.53 -1.69,-75.9 0,-305.82 58,-666.41 179.16,-992.86 -8,-0.14 -15.16,-0.16 -20.63,-0.16 -51.1,0 -117.09,58.49 -146.37,95.78 -159.42,203.11 -224.29,501.04 -224.29,754.17 0,46.67 6.47,200.86 39,244.72 4.44,0.62 9.95,0.72 13.28,0.72 37.23,0 109.35,-5.38 142.81,-18.77l18.71 -7.7zm1139.24 -822.47c-22.24,67.37 -39.72,131.99 -50.72,176.93 -34.71,141.84 -63.15,301.2 -75.6,454.38 61.04,-189.87 105.04,-441.68 126.31,-631.32zm10142.17 0c-22.24,67.37 -39.73,131.99 -50.72,176.93 -34.71,141.84 -63.16,301.2 -75.61,454.38 61.05,-189.87 105.04,-441.68 126.33,-631.32z"/>
  <path class="fil0" d="M22222.99 3167.35c-60.8,25.05 -160.97,39.35 -246.82,39.35 -239.64,0 -325.49,-207.47 -325.49,-518.66 0,-386.32 118.05,-715.38 282.57,-922.85 96.58,-125.2 236.08,-200.3 361.28,-200.3 96.57,0 160.96,10.72 207.46,32.19l125.19 -389.89c-28.62,-21.47 -153.8,-50.08 -275.42,-50.08 -246.81,0 -507.93,89.43 -715.38,304.04 -282.59,282.59 -461.44,744.01 -461.44,1327.05 0,279 89.43,822.7 701.08,822.7 143.08,0 253.97,-14.3 329.09,-46.5l17.88 -397.04zm1216.38 -2017.4c-211.05,0 -386.32,82.27 -529.39,221.77 -332.66,325.5 -500.77,969.35 -500.77,1459.39 0,264.7 75.12,786.93 597.35,786.93 211.05,0 382.74,-78.69 532.97,-228.92 318.34,-318.34 486.46,-962.2 486.46,-1473.69 0,-286.17 -64.38,-765.48 -586.61,-765.48zm-60.81 393.47c164.54,0 186,182.42 186,336.24 0,261.12 -103.73,1037.3 -343.39,1273.39 -42.92,46.5 -96.58,71.54 -146.65,71.54 -186,0 -203.89,-214.62 -203.89,-350.54 0,-357.7 125.19,-1030.17 346.97,-1255.51 50.07,-50.08 103.72,-75.12 160.96,-75.12zm1005.33 2046.02l121.62 -640.28c78.7,-418.51 132.35,-815.55 164.55,-1058.78l7.15 0c25.04,300.47 46.5,465.01 121.62,801.23l193.15 897.83 382.74 0 461.41 -2410.87 -386.31 0 -118.04 625.97c-75.12,400.61 -118.04,815.55 -150.23,1080.24l-7.15 0c-17.88,-200.32 -57.23,-429.24 -118.05,-747.58l-185.99 -958.63 -407.77 0 -461.44 2410.87 382.74 0zm1355.89 0l450.69 0 193.17 -1001.55 522.23 0 71.55 -375.59 -525.82 0 125.2 -640.26 554.43 0 78.69 -393.47 -1008.7 0 -461.42 2410.87zm2575.62 -1445.09l-540.12 0 118.05 -572.31 554.43 0 78.69 -393.47 -1008.7 0 -461.42 2410.87 1051.63 0 78.69 -397.04 -608.08 0 132.35 -668.91 529.39 0 75.11 -379.14zm1198.5 1023c-60.81,25.05 -160.97,39.35 -246.82,39.35 -239.64,0 -325.49,-207.47 -325.49,-518.66 0,-386.32 118.04,-715.38 282.57,-922.85 96.57,-125.2 236.07,-200.3 361.27,-200.3 96.58,0 160.97,10.72 207.47,32.19l125.19 -389.89c-28.62,-21.47 -153.82,-50.08 -275.42,-50.08 -246.81,0 -507.93,89.43 -715.39,304.04 -282.57,282.59 -461.42,744.01 -461.42,1327.05 0,279 89.43,822.7 701.08,822.7 143.08,0 253.97,-14.3 329.07,-46.5l17.9 -397.04zm597.56 704.66c157.39,14.3 228.92,67.97 228.92,128.77 0,78.7 -75.11,107.3 -135.92,107.3 -60.8,0 -125.19,-14.3 -182.43,-46.5l-67.95 189.58c53.65,35.77 135.93,64.38 228.92,64.38 168.12,0 404.19,-85.85 404.19,-332.64 0,-114.48 -71.54,-211.05 -193.14,-236.1l96.57 -135.92c107.3,-7.15 196.72,-21.45 257.54,-46.5l17.88 -397.04c-60.8,25.05 -160.96,39.35 -246.81,39.35 -239.65,0 -325.5,-207.47 -325.5,-518.66 0,-386.32 118.05,-715.38 282.59,-922.85 96.57,-125.2 236.07,-200.3 361.27,-200.3 96.57,0 160.96,10.72 207.47,32.19l125.18 -389.89c-28.6,-21.47 -153.8,-50.08 -275.42,-50.08 -246.81,0 -507.91,89.43 -715.38,304.04 -282.59,282.59 -461.44,744.01 -461.44,1327.05 0,257.54 75.12,740.43 568.74,811.98l-175.27 271.84zm1806.58 -844.16l-7.15 561.59 432.81 0 -21.45 -2410.87 -522.24 0 -976.51 2410.87 436.39 0 211.04 -561.59 447.12 0zm-339.81 -325.5l193.15 -536.54c50.07,-132.34 128.77,-397.04 185.99,-579.46l7.16 0c-3.58,182.42 -17.88,436.39 -21.47,583.04l-10.72 532.96 -354.12 0zm257.54 -1659.7c10.73,-93 46.5,-135.92 89.43,-135.92 42.92,0 78.67,25.04 125.18,60.8 46.5,28.62 110.9,57.23 196.75,57.23 164.54,0 282.57,-118.04 329.07,-389.89l-225.35 0c-32.19,110.89 -60.8,143.08 -107.3,143.08 -42.92,0 -82.27,-28.62 -128.77,-64.4 -50.08,-32.2 -103.73,-64.37 -193.17,-64.37 -143.07,0 -271.84,114.45 -314.77,393.46l228.93 0zm1745.76 107.3c-211.05,0 -386.32,82.27 -529.39,221.77 -332.64,325.5 -500.76,969.35 -500.76,1459.39 0,264.7 75.11,786.93 597.33,786.93 211.05,0 382.74,-78.69 532.97,-228.92 318.35,-318.34 486.47,-962.2 486.47,-1473.69 0,-286.17 -64.4,-765.48 -586.62,-765.48zm-60.8 393.47c164.54,0 185.99,182.42 185.99,336.24 0,261.12 -103.72,1037.3 -343.39,1273.39 -42.92,46.5 -96.57,71.54 -146.64,71.54 -186,0 -203.9,-214.62 -203.9,-350.54 0,-357.7 125.2,-1030.17 346.97,-1255.51 50.07,-50.08 103.73,-75.12 160.97,-75.12z"/>
  <path class="fil2 str0" d="M32244.11 2040.71c76.69,-387.24 236.32,-782.78 487.81,-1028.61 172,-168.13 382.65,-260.69 624.87,-260.69 544.84,0 723.22,433.31 723.22,902.07 0,505.76 -161.21,1205.04 -526.46,1570.3 -174.85,174.84 -380.88,268.93 -629.57,268.93 -368.16,0 -576.85,-216.9 -671.43,-503.04l4.23 474.42 -708.99 0 7.15 -561.59 -214.18 0 -211.04 561.59 -677.37 0c-14.76,2.86 -29.65,5.38 -44.56,7.59 57.82,66.09 91.25,152.85 91.25,249.27 0,302.82 -263.36,469.26 -540.79,469.26 -104.85,0 -216.94,-28.82 -304.71,-87.34l-88.83 -59.23 113.07 -315.41 -28.13 -2.55 65.41 -101.46 8.22 -22.94 4.82 2.71 118.14 -183.24c-213.58,-87.86 -349.39,-260.02 -422.45,-468.72l-19.93 442.2 -78.78 33.76c-113.96,48.85 -260.19,57.56 -382.89,57.56 -577.66,0 -837.68,-434.2 -837.68,-959.3 0,-42.46 0.96,-85.22 2.92,-128.1l-509.04 0 -78.3 395.7 608.14 0 -132.84 670.23 -1329.03 0 513.71 -2684.07 1288.25 0 -133.32 666.67 -555.11 0 -61.69 299.12 505.63 0c79.78,-239.3 203.29,-461.76 381.43,-642.49 216.86,-220.03 503.07,-344.75 812.67,-344.75 95.31,0 279.64,19.08 357.42,77.43l77.81 58.4 -108.48 337.82c34.86,-44.91 72.4,-87.97 112.72,-128.89 216.87,-220.03 503.09,-344.75 812.67,-344.75 95.31,0 279.65,19.08 357.42,77.43l77.81 58.4 -202.11 629.47 -140.12 -64.71c-38.87,-17.94 -108.47,-19.61 -150.21,-19.61 -97.46,0 -196.3,74.77 -253.83,148.05 -178.94,227.98 -253.43,553.76 -253.43,838.51 0,93.09 8.17,225.8 55.14,308.7 30.93,54.6 71.73,73.36 133.76,73.36 56.25,0 143.49,-7.93 194.79,-29.05l198.12 -81.6 -2.4 53.14 742.58 -1833.35 -204.73 0 24.22 -157.37c37.59,-244.33 166.8,-509.28 449.78,-509.28 105.66,0 180.17,30.25 267.03,86.08l4.85 3.11 4.58 3.52c3.68,2.84 9.21,7.19 15.46,11.95 2.52,-8.01 4.64,-15.32 6.13,-20.47l28.6 -98.51 489.89 0 -27.31 159.64c-31.3,182.91 -106.03,361.74 -252.65,448.74l10.65 1196zm-2662.76 -549.02l-70.45 -32.53c-38.86,-17.94 -108.45,-19.61 -150.21,-19.61 -97.45,0 -196.29,74.77 -253.83,148.05 -178.94,227.98 -253.43,553.76 -253.43,838.51 0,93.09 8.18,225.8 55.15,308.7 30.92,54.6 71.72,73.36 133.75,73.36 56.26,0 143.5,-7.93 194.79,-29.05l132.75 -54.67c-8.94,-64.82 -13.22,-131.24 -13.22,-198.18 0,-349.75 64.6,-718.1 224.69,-1034.57zm-5646.33 280.5l189.9 -992.16 633.35 0 180.62 930.95c10.51,-64.58 21.74,-129.14 33.92,-193.68l139.02 -737.27 664.78 0 -513.71 2684.07 -606.01 0 -205.19 -953.72c-11.73,67.5 -23.95,134.95 -36.75,202.34l-142.71 751.38 -661.06 0 166.01 -867.38c-85.26,243.5 -206.02,467.25 -365.82,627.06 -174.85,174.84 -380.87,268.93 -629.57,268.93 -345.82,0 -550.93,-191.37 -652.94,-451.75l-15.92 353.28 -78.78 33.76c-113.96,48.85 -260.17,57.56 -382.89,57.56 -577.66,0 -837.68,-434.2 -837.68,-959.3 0,-506.73 135.61,-1052.48 500.75,-1422.94 216.87,-220.03 503.09,-344.75 812.67,-344.75 95.31,0 279.64,19.08 357.42,77.43l77.81 58.4 -74.25 231.23c32.09,-40.57 65.99,-78.56 101.76,-113.52 172,-168.13 382.67,-260.69 624.88,-260.69 544.83,0 723.22,433.31 723.22,902.07 0,38.52 -0.93,78.17 -2.83,118.71zm-1659.8 -287.54l-55.22 -25.49c-38.86,-17.94 -108.45,-19.61 -150.2,-19.61 -97.46,0 -196.3,74.77 -253.83,148.05 -178.95,227.98 -253.43,553.76 -253.43,838.51 0,93.09 8.17,225.8 55.14,308.7 30.93,54.6 71.73,73.36 133.75,73.36 56.26,0 143.5,-7.93 194.79,-29.05l110.27 -45.42c-5.83,-54.26 -8.62,-109.36 -8.62,-164.51 0,-331.36 73.13,-740.01 227.34,-1084.54zm4189.31 -37.95l-71.78 367.07 524.99 0 -123.58 648.78 -522.5 0 -193.15 1001.55 -728.69 0 513.71 -2684.07 1288.25 0 -133.32 666.67 -553.94 0zm-3310.71 -28.6c-25.07,0 -47,17.51 -63.74,34.47 -108.71,110.12 -185.22,367.01 -221.32,514.5 -49.52,202.4 -86.28,436.79 -86.28,645.04 0,54.42 2.77,125.4 22.76,176.35 9.92,25.26 16.73,37.59 44.54,37.59 15.8,0 36.34,-16.82 46.27,-27.59l2.2 -2.38 2.31 -2.29c192.91,-190.02 302.65,-908.58 302.65,-1176.08 0,-52.47 -2.14,-126.58 -21.53,-175.05 -7.21,-18.02 -9.12,-24.57 -27.87,-24.57zm8394.03 885.73l25.89 0 1.53 -76.17 -27.42 76.17zm1748.15 -885.73c-25.07,0 -47,17.51 -63.75,34.47 -108.69,110.12 -185.21,367.01 -221.3,514.5 -49.52,202.4 -86.28,436.79 -86.28,645.04 0,54.42 2.77,125.4 22.75,176.35 9.92,25.26 16.75,37.59 44.55,37.59 15.79,0 36.33,-16.82 46.26,-27.59l2.2 -2.38 2.31 -2.29c192.91,-190.02 302.66,-908.58 302.66,-1176.08 0,-52.47 -2.14,-126.58 -21.53,-175.05 -7.21,-18.02 -9.12,-24.57 -27.87,-24.57z"/>
  <path class="fil3" d="M21998.25 2905.42c-60.8,25.04 -160.97,39.35 -246.82,39.35 -239.64,0 -325.49,-207.47 -325.49,-518.66 0,-386.32 118.05,-715.38 282.57,-922.85 96.58,-125.2 236.08,-200.32 361.28,-200.32 96.57,0 160.96,10.73 207.46,32.2l125.19 -389.89c-28.6,-21.47 -153.8,-50.08 -275.42,-50.08 -246.81,0 -507.93,89.43 -715.38,304.04 -282.59,282.57 -461.44,744.01 -461.44,1327.05 0,279 89.43,822.7 701.08,822.7 143.08,0 253.97,-14.3 329.09,-46.5l17.88 -397.04zm1216.38 -2017.4c-211.05,0 -386.32,82.27 -529.39,221.77 -332.66,325.5 -500.77,969.35 -500.77,1459.39 0,264.7 75.12,786.93 597.35,786.93 211.05,0 382.74,-78.69 532.97,-228.92 318.34,-318.34 486.46,-962.2 486.46,-1473.71 0,-286.16 -64.38,-765.46 -586.61,-765.46zm-60.81 393.47c164.54,0 186,182.42 186,336.23 0,261.12 -103.73,1037.32 -343.39,1273.4 -42.92,46.5 -96.57,71.54 -146.65,71.54 -186,0 -203.89,-214.62 -203.89,-350.54 0,-357.7 125.2,-1030.17 346.97,-1255.51 50.07,-50.09 103.72,-75.12 160.96,-75.12zm1005.33 2046l121.62 -640.26c78.7,-418.51 132.35,-815.56 164.55,-1058.78l7.15 0c25.04,300.47 46.5,464.99 121.62,801.23l193.15 897.81 382.74 0 461.41 -2410.86 -386.31 0 -118.04 625.97c-75.12,400.61 -118.04,815.53 -150.23,1080.22l-7.15 0c-17.88,-200.3 -57.23,-429.23 -118.04,-747.58l-186 -958.62 -407.77 0 -461.44 2410.86 382.74 0zm1355.89 0l450.69 0 193.17 -1001.54 522.24 0 71.54 -375.59 -525.82 0 125.2 -640.28 554.43 0 78.69 -393.46 -1008.7 0 -461.42 2410.86zm2575.64 -1445.08l-540.14 0 118.05 -572.32 554.43 0 78.69 -393.46 -1008.7 0 -461.42 2410.86 1051.63 0 78.7 -397.04 -608.09 0 132.35 -668.89 529.39 0 75.12 -379.14zm1198.49 1023c-60.81,25.04 -160.97,39.35 -246.82,39.35 -239.64,0 -325.49,-207.47 -325.49,-518.66 0,-386.32 118.04,-715.38 282.57,-922.85 96.57,-125.2 236.08,-200.32 361.27,-200.32 96.58,0 160.97,10.73 207.47,32.2l125.19 -389.89c-28.62,-21.47 -153.8,-50.08 -275.42,-50.08 -246.81,0 -507.93,89.43 -715.39,304.04 -282.57,282.57 -461.42,744.01 -461.42,1327.05 0,279 89.43,822.7 701.08,822.7 143.08,0 253.97,-14.3 329.07,-46.5l17.9 -397.04zm597.56 704.66c157.39,14.3 228.93,67.95 228.93,128.77 0,78.7 -75.12,107.3 -135.93,107.3 -60.8,0 -125.19,-14.3 -182.43,-46.5l-67.95 189.58c53.65,35.77 135.93,64.38 228.92,64.38 168.12,0 404.19,-85.85 404.19,-332.66 0,-114.47 -71.52,-211.04 -193.14,-236.08l96.57 -135.92c107.3,-7.15 196.74,-21.47 257.54,-46.5l17.88 -397.04c-60.8,25.04 -160.96,39.35 -246.81,39.35 -239.65,0 -325.5,-207.47 -325.5,-518.66 0,-386.32 118.05,-715.38 282.59,-922.85 96.57,-125.2 236.07,-200.32 361.27,-200.32 96.57,0 160.97,10.73 207.47,32.2l125.19 -389.89c-28.62,-21.47 -153.82,-50.08 -275.43,-50.08 -246.79,0 -507.91,89.43 -715.38,304.04 -282.59,282.57 -461.44,744.01 -461.44,1327.05 0,257.54 75.12,740.43 568.74,811.98l-175.27 271.84zm1806.58 -844.16l-7.15 561.58 432.81 0 -21.45 -2410.86 -522.24 0 -976.5 2410.86 436.38 0 211.04 -561.58 447.12 0zm-339.81 -325.5l193.15 -536.54c50.07,-132.34 128.77,-397.04 185.99,-579.46l7.16 0c-3.58,182.42 -17.88,436.39 -21.47,583.04l-10.72 532.96 -354.12 0zm257.54 -1659.71c10.73,-93 46.5,-135.92 89.43,-135.92 42.92,0 78.67,25.05 125.19,60.81 46.5,28.6 110.89,57.23 196.74,57.23 164.54,0 282.57,-118.05 329.07,-389.89l-225.35 0c-32.19,110.89 -60.8,143.07 -107.3,143.07 -42.92,0 -82.27,-28.6 -128.77,-64.38 -50.08,-32.2 -103.73,-64.38 -193.15,-64.38 -143.08,0 -271.85,114.47 -314.78,393.46l228.93 0zm1745.76 107.32c-211.04,0 -386.31,82.27 -529.39,221.77 -332.64,325.5 -500.76,969.35 -500.76,1459.39 0,264.7 75.12,786.93 597.35,786.93 211.04,0 382.73,-78.69 532.97,-228.92 318.34,-318.34 486.46,-962.2 486.46,-1473.71 0,-286.16 -64.4,-765.46 -586.62,-765.46zm-60.8 393.47c164.54,0 185.99,182.42 185.99,336.23 0,261.12 -103.72,1037.32 -343.39,1273.4 -42.92,46.5 -96.57,71.54 -146.64,71.54 -186,0 -203.9,-214.62 -203.9,-350.54 0,-357.7 125.2,-1030.17 346.97,-1255.51 50.07,-50.09 103.73,-75.12 160.97,-75.12z"/>
 </g>
</svg>
